<svg id="Layer_1" data-name="Layer 1" xmlns="http://www.w3.org/2000/svg" viewBox="0 0 350.36 217.91"><defs><style>.cls-1{fill:#63a3e2;}.cls-1,.cls-2{stroke:#164f84;stroke-width:3px;}.cls-2{fill:#3a6590;}.cls-3{font-size:9px;font-family:NerdyNorms, Nerdy Norms;}.cls-4{letter-spacing:-0.2em;}.cls-5{letter-spacing:-0.1em;}.cls-6{letter-spacing:-0.08em;}.cls-7{letter-spacing:-0.26em;}.cls-8{letter-spacing:-0.06em;}.cls-9{letter-spacing:-0.15em;}.cls-10{letter-spacing:-0.04em;}.cls-11{letter-spacing:-0.09em;}.cls-12{letter-spacing:-0.09em;}.cls-13{letter-spacing:-0.07em;}</style></defs><title>hat</title><path id="path3359" class="cls-1" d="M330.64,292.84c-23.4-17.33-33-37.76-58.77-52.82,38.87-7.44,46.12-5.46,70.52,8S378.25,317.39,330.64,292.84Z" transform="translate(-14.71 -82.6)"/><path id="path3355" class="cls-2" d="M289.68,210c-74.13-35.59-161.21-13-233.61,26.48-14.13,7.72-27.71,16.08-40.52,24.77,1.93-.46,2.53-26.93,3.58-32.84-2.2-65.33,20.3-112.81,83.17-136,32-3.4,69.18-13.3,100.94-5.19,22.4,10.49,27.45,16.71,52.34,41.75,4.34,9.11,33.14,80.9,34.1,81Z" transform="translate(-14.71 -82.6)"/><path id="path3357" class="cls-2" d="M347,251.25c-37.38-25.68-70.49-59.09-109.56-62.06-57.43-3.93-125.3,15.95-185.14,48.74,28.56,38.17,39,71.52,97.15,51.51C208.4,269.14,290,210,347,251.25Z" transform="translate(-14.71 -82.6)"/><path id="path3361" class="cls-1" d="M290.23,208.5c-72.33-34.44-144-7.7-218.56,20.22C80.9,114.63,76.46,83.56,195,84.79c23.54,3,37.32,17.28,62.2,42.32,4.35,9.12,28.51,63.9,33.07,81.39Z" transform="translate(-14.71 -82.6)"/><text class="cls-3" transform="translate(137.49 57.21)"><tspan class="cls-4">Y</tspan><tspan class="cls-5" x="12.56" y="0">o</tspan><tspan class="cls-6" x="25.77" y="0">u</tspan><tspan x="37.8" y="0">r </tspan><tspan class="cls-7" x="-51.78" y="22">a</tspan><tspan class="cls-8" x="-39.17" y="22">w</tspan><tspan class="cls-9" x="-23.93" y="22">e</tspan><tspan class="cls-10" x="-13.16" y="22">s</tspan><tspan class="cls-11" x="0.19" y="22">o</tspan><tspan class="cls-12" x="13.47" y="22">m</tspan><tspan x="28.92" y="22">e </tspan><tspan class="cls-13" x="48.03" y="22">t</tspan><tspan x="62.78" y="22">ext</tspan></text></svg>